<?xml version="1.0" standalone="no"?>
<!DOCTYPE svg PUBLIC "-//W3C//DTD SVG 20010904//EN"
 "http://www.w3.org/TR/2001/REC-SVG-20010904/DTD/svg10.dtd">
<svg version="1.0" xmlns="http://www.w3.org/2000/svg"
 width="167.000000pt" height="167.000000pt" viewBox="0 0 167.000000 167.000000"
 preserveAspectRatio="xMidYMid meet">
<metadata>
Created by potrace 1.11, written by Peter Selinger 2001-2013
</metadata>
<g transform="translate(0.000000,167.000000) scale(0.100000,-0.100000)"
fill="#000000" stroke="none">
<path d="M386 1195 c-52 -18 -122 -89 -143 -145 -11 -27 -18 -71 -17 -111 1
-202 194 -322 382 -239 49 22 102 66 102 85 0 6 -14 21 -31 34 l-30 22 -21
-27 c-42 -52 -132 -77 -195 -53 -54 20 -113 92 -113 139 0 20 5 20 206 20
l207 0 -5 63 c-12 144 -104 228 -249 227 -30 -1 -72 -7 -93 -15z m183 -84 c32
-23 59 -59 67 -93 l6 -28 -162 0 -162 0 6 26 c25 98 164 152 245 95z"/>
<path d="M976 1196 c-53 -20 -122 -90 -143 -146 -25 -63 -23 -163 5 -216 29
-56 102 -119 157 -134 49 -14 156 -9 195 8 14 7 36 20 49 29 l23 17 -4 -72
c-6 -108 -54 -162 -153 -170 -72 -6 -135 12 -183 54 l-39 33 -27 -27 c-14 -16
-26 -33 -26 -40 0 -19 100 -80 153 -93 67 -16 182 -7 233 19 22 11 55 35 72
53 56 57 62 99 62 411 l0 278 -45 0 c-43 0 -45 -1 -45 -30 l0 -30 -46 33 c-40
28 -54 32 -122 35 -48 1 -91 -3 -116 -12z m195 -82 c66 -33 107 -129 89 -209
-37 -163 -257 -190 -330 -40 -78 161 84 329 241 249z"/>
</g>
</svg>
